<svg width="168" height="30" viewBox="0 0 168 30" fill="none" xmlns="http://www.w3.org/2000/svg">
<g clip-path="url(#clip0_6822_377)">
<path d="M64.8587 6.58825L64.8293 23.6922H60.3591V21.3785C59.1827 22.9893 57.3888 24.0436 54.9772 24.0436C50.4776 24.0436 47.125 20.3827 47.125 15.1109C47.125 9.80988 50.5365 6.17822 54.9478 6.17822C57.3888 6.17822 59.1827 7.29115 60.3885 8.93125V6.52967H64.8587V6.58825ZM60.3885 15.1402C60.3885 12.3286 58.4769 10.4542 55.9771 10.4542C53.4774 10.4542 51.6246 12.3579 51.6246 15.1402C51.6246 17.9811 53.5068 19.8262 55.9771 19.8262C58.5063 19.8262 60.3885 17.9811 60.3885 15.1402Z" fill="white"/>
<path d="M79.5927 23.6922L76.0636 18.3033L72.711 23.6922H67.3291L73.3874 14.8473L67.6526 6.55896H72.9756L76.2401 11.5671L79.2692 6.55896H84.6511L78.9163 14.9645L84.9452 23.6629H79.5927V23.6922Z" fill="white"/>
<path d="M103.267 6.58825L103.237 23.6922H98.7673V21.3785C97.5909 22.9893 95.797 24.0436 93.3854 24.0436C88.8858 24.0436 85.5332 20.3827 85.5332 15.1109C85.5332 9.80988 88.9447 6.17822 93.3266 6.17822C95.7676 6.17822 97.5615 7.29115 98.7673 8.93125V6.52967H103.267V6.58825ZM98.7967 15.1402C98.7967 12.3286 96.8851 10.4542 94.3854 10.4542C91.8856 10.4542 90.0328 12.3579 90.0328 15.1402C90.0328 17.9811 91.915 19.8262 94.3854 19.8262C96.8851 19.8262 98.7967 17.9811 98.7967 15.1402Z" fill="white"/>
<path d="M124.559 15.1402C124.559 20.412 121.177 24.0729 116.707 24.0729C114.266 24.0729 112.501 23.0186 111.266 21.4078V23.7215H106.796V-0.235748H111.266V8.98984C112.442 7.34973 114.295 6.23681 116.707 6.23681C121.118 6.20752 124.559 9.83918 124.559 15.1402ZM120.03 15.1402C120.03 12.3286 118.177 10.4542 115.677 10.4542C113.178 10.4542 111.266 12.3579 111.266 15.1402C111.266 17.9811 113.178 19.8262 115.677 19.8262C118.148 19.8262 120.03 17.9811 120.03 15.1402Z" fill="white"/>
<path d="M145.028 16.2824H131.853C132.147 19.0062 134 20.3827 136.323 20.3827C138.029 20.3827 139.529 19.5919 140.146 18.2447H144.763C143.469 22.2864 140.058 24.0729 136.352 24.0729C130.971 24.0729 127.294 20.2656 127.294 15.1695C127.294 10.0442 131 6.20752 136.264 6.20752C141.94 6.20752 145.469 10.6592 145.028 16.2824ZM132.059 13.0315H140.264C139.764 11.1571 138.352 9.89776 136.205 9.89776C134.029 9.86847 132.617 11.1864 132.059 13.0315Z" fill="white"/>
<path d="M165.409 16.2824H152.204C152.498 19.0062 154.351 20.3827 156.674 20.3827C158.38 20.3827 159.88 19.5919 160.497 18.2447H165.115C163.821 22.2864 160.409 24.0729 156.704 24.0729C151.322 24.0729 147.646 20.2656 147.646 15.1695C147.646 10.0442 151.351 6.20752 156.615 6.20752C162.291 6.20752 165.82 10.6592 165.409 16.2824ZM152.439 13.0315H160.644C160.144 11.1571 158.733 9.89776 156.586 9.89776C154.41 9.86847 152.998 11.1864 152.439 13.0315Z" fill="white"/>
<path d="M34.6145 15.1108C34.3204 15.0815 33.9969 15.0522 33.6734 15.0522C30.0267 15.0522 27.027 12.0649 27.027 8.40395C27.027 8.08178 26.9976 7.78891 26.9682 7.46674C26.527 4.18654 23.6743 1.63852 20.2335 1.63852C16.7926 1.63852 13.9399 4.18654 13.4988 7.49603C13.4694 7.78891 13.44 8.08178 13.44 8.40395C13.44 12.0649 10.4402 15.0522 6.7641 15.0522C6.4406 15.0522 6.1465 15.0815 5.823 15.1108C2.52918 15.5501 0 18.391 0 21.7884C0 25.5079 3.02914 28.5538 6.7641 28.5538C10.205 28.5538 13.0576 26.0058 13.4988 22.6963C13.5282 22.4034 13.5576 22.1105 13.5576 21.7884C13.5576 18.1567 16.5573 15.1694 20.2335 15.1694C23.9096 15.1694 26.9093 18.1274 26.9093 21.7884C26.9093 22.1105 26.9388 22.4034 26.9682 22.7256C27.4093 26.0058 30.262 28.5538 33.6734 28.5538C37.4084 28.5538 40.4669 25.5079 40.4669 21.7884C40.4964 18.3617 37.9378 15.5501 34.6145 15.1108Z" fill="#F31C2A"/>
</g>
<defs>
<clipPath id="clip0_6822_377">
<rect width="168" height="30" fill="white"/>
</clipPath>
</defs>
</svg>
